<?xml version="1.0" standalone="no"?><!DOCTYPE svg PUBLIC "-//W3C//DTD SVG 1.1//EN" "http://www.w3.org/Graphics/SVG/1.1/DTD/svg11.dtd"><svg t="1679025433835" class="icon" viewBox="0 0 1024 1024" version="1.1" xmlns="http://www.w3.org/2000/svg" p-id="2724" xmlns:xlink="http://www.w3.org/1999/xlink" width="128" height="128"><path d="M703.146667 938.666667h-219.733334a32.426667 32.426667 0 0 1-32-32v-42.666667a30.72 30.72 0 0 1 8.533334-21.333333 65.28 65.28 0 0 0-29.866667-104.96 65.706667 65.706667 0 0 0-58.88 9.813333 66.133333 66.133333 0 0 0-26.453333 52.48 63.573333 63.573333 0 0 0 15.786666 42.666667 30.72 30.72 0 0 1 8.533334 21.333333v42.666667a32.426667 32.426667 0 0 1-32 32H117.333333a32.426667 32.426667 0 0 1-32-32v-280.32a32 32 0 0 1 32-32h42.666667a33.28 33.28 0 0 1 21.76 8.106666 64.853333 64.853333 0 0 0 106.24-34.56 66.133333 66.133333 0 0 0 0-29.866666 63.146667 63.146667 0 0 0-20.48-34.133334 65.28 65.28 0 0 0-85.333333 0 33.28 33.28 0 0 1-21.76 8.106667h-42.666667a32 32 0 0 1-32.426667-32.426667V320.853333a32.426667 32.426667 0 0 1 32-32h186.88a128 128 0 0 1-20.906666-99.84 128 128 0 0 1 88.746666-98.133333A128 128 0 0 1 539.733333 213.333333a124.586667 124.586667 0 0 1-23.466666 73.813334h186.88a32.426667 32.426667 0 0 1 32 32v247.893333a125.44 125.44 0 0 1 75.52-21.76 128 128 0 0 1 124.16 167.68 128 128 0 0 1-98.133334 88.746667 128 128 0 0 1-99.84-20.906667v125.866667a32.426667 32.426667 0 0 1-33.706666 32z m-186.88-64h154.88v-128a32 32 0 0 1 32-32h42.666666A31.573333 31.573333 0 0 1 768 725.333333a65.28 65.28 0 0 0 56.32 14.506667 64.426667 64.426667 0 0 0 48.64-42.666667 64.426667 64.426667 0 0 0-10.24-58.88 66.56 66.56 0 0 0-94.72-13.226666 31.573333 31.573333 0 0 1-21.76 8.533333h-42.666667a32 32 0 0 1-32-32V352.853333h-187.733333a32 32 0 0 1-32-32v-42.666666a31.573333 31.573333 0 0 1 8.533333-21.76 62.293333 62.293333 0 0 0 15.786667-42.666667 65.706667 65.706667 0 0 0-26.453333-52.48A65.28 65.28 0 0 0 360.533333 256a31.573333 31.573333 0 0 1 8.533334 21.76v42.666667a32 32 0 0 1-32 32H149.333333v93.866666a132.693333 132.693333 0 0 1 159.573334 8.96 128 128 0 0 1 0 194.56 132.693333 132.693333 0 0 1-159.573334 8.96v215.893334h154.88a128 128 0 0 1-23.466666-74.24 128 128 0 0 1 167.253333-123.733334 128 128 0 0 1 89.173333 97.706667 128 128 0 0 1-20.906666 100.266667z" fill="#212121" p-id="2725"></path></svg>